<svg xmlns="http://www.w3.org/2000/svg" width="80" height="80" viewBox="0 0 800 800"><path d="M150.2 544 66.7 400l83.5-144 83.5-144h334l82.9 143c45.6 78.7 83 143.6 83 144.3 0 .8-37.3 66-83 145l-83.3 143.6H400.5l-166.8.1Zm261.5-51.4c5.7-1.2 14-4 18.6-6 32.6-15.6 43.1-54.6 22-82.3-5.3-7-16.8-13.7-41-24-43.2-18.4-48.6-22.2-48.6-34.3 0-7.6 4.4-13.9 12.6-18 5.8-2.9 8.4-3.3 19.4-3.2 14.6.1 25.3 3.2 36.8 10.6a82 82 0 0 0 7.7 4.6c.3 0 4.5-5 9.4-11l9-10.8-3.2-2.5c-30-23.9-65.7-29-96.7-13.7-12 6-21 14.8-26.3 26a36 36 0 0 0-4 20.7c0 10 .5 13.2 3.5 19.5 4.2 9.1 11 16.9 19.8 22.5 3.6 2.3 19.2 9.8 34.7 16.7 15.5 6.8 30.2 14 32.8 16a20.8 20.8 0 0 1 8.1 19.6c-1.8 19.2-30.8 26.6-60.6 15.4a107 107 0 0 1-17.2-9.4c-8.5-5.6-10.3-6.4-11.8-4.8l-10 11.5c-8.2 9.7-8.3 9.8-5.8 12.5a105.8 105.8 0 0 0 90.8 24.4zm-226.5-28.3 7.3-25.7 32 .4 32.1.3L264 465l7.2 25.7h18.4c10.2 0 18.5-.5 18.5-1 0-.6-13.9-44-31-96.7l-31-95.6h-41.8l-3.4 10.3A190688.4 190688.4 0 0 0 142 489c-.5 1.4 3.3 1.7 17.7 1.4l18.2-.4Zm16.1-54.8c0-.7 2.4-9.6 5.3-19.7 3-10.2 8-28.6 11.3-41a354 354 0 0 1 6.5-23c.4-.3 1.4 2.6 2.3 6.5 1 3.9 6 22.8 11.5 42.1 5.4 19.3 9.8 35.3 9.8 35.7 0 .3-10.5.6-23.3.6-13.1 0-23.4-.6-23.4-1.2zM516 443c0-26.2-.6-56-1.3-66.3l-2-28.7-.7-10 6.5 22c7.3 25 25 77.3 26.6 79 .7.6 5.5 1 11 .7l9.7-.4 10.3-30c5.7-16.5 13.2-40 16.7-52.3 3.5-12.2 6.5-22.1 6.6-22 .1.2-.6 9.3-1.6 20.3A1435 1435 0 0 0 595 433l-.8 57.7h32.4V297.3h-20c-11 0-20 .3-20 .5l-12 39.7a1782 1782 0 0 0-14.9 49.8 64.2 64.2 0 0 1-3.6 11.7c-.6.6-2.7-4.8-4.7-12l-15.2-51.3-11.6-38.3h-39.4v193.3H516V443Z" style="fill:#fff;stroke-width:1.33333"/></svg>