<?xml version="1.0" encoding="UTF-8" standalone="no"?>
<!DOCTYPE svg PUBLIC "-//W3C//DTD SVG 20010904//EN"
              "http://www.w3.org/TR/2001/REC-SVG-20010904/DTD/svg10.dtd">

<svg xmlns="http://www.w3.org/2000/svg"
    width="80px" height="80px"
    viewBox="0 0 800 716">
 <path id="Selection"
       fill="white" stroke="black" stroke-width="1"
       d="M 0.00,393.00
          C 0.00,393.00 56.00,369.85 56.00,369.85
            56.00,369.85 151.00,329.28 151.00,329.28
            151.00,329.28 202.00,307.43 202.00,307.43
            207.25,305.19 222.25,299.52 225.96,296.59
            231.35,292.32 239.19,279.88 243.93,274.00
            258.85,255.52 273.89,236.73 293.00,222.37
            300.53,216.71 311.06,210.36 320.00,207.36
            320.00,207.36 341.00,201.69 341.00,201.69
            359.09,193.59 373.74,181.49 387.99,167.91
            395.01,161.21 402.18,152.49 408.41,145.00
            425.53,124.43 441.01,102.39 455.66,80.00
            455.66,80.00 478.00,45.00 478.00,45.00
            489.46,27.81 505.55,2.55 528.00,0.17
            545.70,-1.70 560.67,13.08 570.37,26.00
            592.86,55.92 608.33,91.42 622.20,126.00
            644.00,180.33 662.17,235.74 681.34,291.00
            681.34,291.00 729.42,425.00 729.42,425.00
            729.42,425.00 749.40,473.00 749.40,473.00
            749.40,473.00 774.85,537.00 774.85,537.00
            774.85,537.00 791.42,575.00 791.42,575.00
            791.42,575.00 799.00,592.00 799.00,592.00
            787.32,587.71 775.12,576.12 765.58,568.01
            742.35,548.26 722.12,525.20 697.00,507.59
            680.67,496.14 663.29,487.41 643.00,487.01
            615.28,486.47 591.88,502.69 571.91,520.09
            571.91,520.09 556.09,534.01 556.09,534.01
            556.09,534.01 548.80,542.71 548.80,542.71
            548.80,542.71 528.75,564.58 528.75,564.58
            528.75,564.58 503.25,595.00 503.25,595.00
            477.84,625.30 450.59,657.97 419.00,681.89
            403.59,693.56 390.15,701.91 372.00,708.81
            367.60,710.48 355.41,714.41 351.05,714.42
            346.58,714.43 345.48,709.46 344.00,706.00
            344.00,706.00 332.58,680.00 332.58,680.00
            316.63,642.61 302.34,604.71 282.70,569.00
            271.22,548.15 252.18,520.83 229.00,512.55
            222.01,510.05 217.26,509.92 210.00,510.00
            202.18,510.10 193.25,513.11 186.00,516.00
            182.38,517.44 176.83,520.39 173.00,519.23
            170.40,518.45 163.62,513.17 161.00,511.29
            161.00,511.29 135.00,492.29 135.00,492.29
            135.00,492.29 45.00,427.15 45.00,427.15
            45.00,427.15 17.00,407.02 17.00,407.02
            11.57,403.26 3.50,398.52 0.00,393.00 Z" />
</svg>